<?xml version="1.0" standalone="no"?>
<!DOCTYPE svg PUBLIC "-//W3C//DTD SVG 20010904//EN"
 "http://www.w3.org/TR/2001/REC-SVG-20010904/DTD/svg10.dtd">
<svg version="1.0" xmlns="http://www.w3.org/2000/svg"
 width="1280.000000pt" height="1280.000000pt" viewBox="0 0 1280.000000 1280.000000"
 preserveAspectRatio="xMidYMid meet">
<metadata>
Created by potrace 1.15, written by Peter Selinger 2001-2017
</metadata>
<g transform="translate(0.000000,1280.000000) scale(0.100000,-0.100000)"
fill="#000000" stroke="none">
<path d="M2425 11894 c-167 -24 -345 -79 -480 -146 -684 -344 -1008 -1133
-759 -1851 176 -507 597 -873 1137 -989 147 -31 437 -31 583 0 312 67 564 203
782 423 464 465 570 1182 263 1766 -70 133 -150 241 -261 354 -206 208 -454
348 -739 416 -90 21 -135 25 -301 28 -107 2 -208 1 -225 -1z"/>
<path d="M6155 11884 c-620 -104 -1097 -564 -1237 -1191 -19 -84 -22 -128 -22
-303 0 -222 12 -304 69 -475 213 -639 833 -1064 1505 -1032 701 34 1268 525
1417 1227 27 130 25 450 -5 583 -96 431 -346 781 -715 1002 -158 94 -363 166
-554 194 -97 15 -360 12 -458 -5z"/>
<path d="M9965 11889 c-327 -51 -623 -202 -855 -438 -588 -598 -580 -1543 17
-2134 211 -209 471 -347 771 -409 153 -32 430 -31 582 1 408 87 739 309 967
651 253 379 318 866 174 1308 -140 428 -494 792 -921 947 -163 59 -269 77
-480 80 -107 2 -222 0 -255 -6z"/>
<path d="M2359 7890 c-480 -87 -874 -378 -1092 -807 -220 -432 -220 -934 0
-1366 260 -511 776 -827 1348 -827 742 0 1368 533 1492 1270 21 124 21 356 0
480 -93 553 -473 1005 -1000 1189 -155 54 -263 72 -462 77 -147 3 -199 0 -286
-16z"/>
<path d="M6175 7896 c-335 -55 -602 -192 -841 -430 -218 -219 -348 -456 -417
-764 -18 -82 -21 -128 -21 -302 0 -174 3 -220 21 -302 69 -308 199 -545 417
-764 219 -218 456 -348 764 -417 82 -18 128 -21 302 -21 174 0 220 3 302 21
308 69 545 199 764 417 218 219 348 456 417 764 18 82 21 128 21 302 0 174 -3
220 -21 302 -69 308 -199 545 -417 764 -218 218 -457 349 -758 415 -120 26
-414 35 -533 15z"/>
<path d="M9955 7894 c-560 -87 -1025 -480 -1204 -1019 -143 -432 -82 -913 165
-1292 224 -345 557 -574 966 -664 147 -32 390 -37 544 -11 367 63 689 245 917
520 257 308 385 710 348 1094 -20 217 -57 351 -151 543 -179 369 -502 649
-894 774 -210 68 -475 89 -691 55z"/>
<path d="M2436 3910 c-886 -112 -1481 -943 -1300 -1817 104 -505 484 -938 975
-1111 177 -63 272 -77 504 -77 183 0 223 3 314 23 205 46 398 131 564 249 105
74 276 245 350 349 248 350 338 789 247 1204 -128 587 -589 1039 -1184 1161
-114 23 -357 33 -470 19z"/>
<path d="M6250 3914 c-679 -86 -1185 -543 -1333 -1204 -31 -139 -31 -462 1
-603 96 -431 350 -786 715 -1001 237 -139 486 -206 767 -206 263 1 445 43 675
156 411 203 703 583 807 1051 19 82 22 131 23 298 0 174 -3 213 -23 305 -35
153 -65 240 -133 375 -209 423 -612 725 -1079 811 -83 15 -351 26 -420 18z"/>
<path d="M10006 3910 c-804 -102 -1397 -827 -1326 -1622 33 -367 177 -681 430
-939 240 -243 543 -395 877 -440 138 -18 404 -6 533 24 270 64 502 188 699
373 244 230 396 510 457 847 26 141 24 390 -4 534 -121 614 -582 1079 -1192
1203 -118 24 -360 34 -474 20z"/>
</g>
</svg>
